# xmcd CD database file
#
# Track frame offsets:
#	150
#	18776
#	51863
#	69426
#	83771
#	97659
#	112242
#	126341
#	138358
#	154728
#	168418
#	180217
#	193735
#	209549
#	225728
#	254120
#	267616
#	282166
#	302358
#	319825
#
# Disc length: 4466 seconds
#
# Revision: 0
# Processed by: cddbd v1.5.2PL0 Copyright (c) Steve Scherf et al.
# Submitted via: CDex 1.79
#
DISCID=1a117014
DTITLE=100 Hits Jazz - Cd 2
DYEAR=2012
DGENRE=Jazz
TTITLE0=Louis Armstrong-You depend On Me
TTITLE1=Stan Getz-Autumn Leaves
TTITLE2=Buddy De Franco-Autumn In New York
TTITLE3=Charlie Parker-Begin The Beguine
TTITLE4=Benny Carter-I Got Nobody
TTITLE5=Ben Webster-Honeysuckle Rose
TTITLE6=Illinois Jacquet-Blue Nocturne
TTITLE7=Teddy Wilson-That Old Feeling
TTITLE8=Bud Powell-Cherokee
TTITLE9=Coleman Hawkins-Body and Soul
TTITLE10=Oscar Peterson-Somebody Loves Me
TTITLE11=Errol Garner-I Can't Get Started
TTITLE12=Lionel Hampton-I Wish You Love
TTITLE13=Lester Young-Star Dust
TTITLE14=Jack Teagarden-Stars Fell On Alabama
TTITLE15=Duke Ellington-Satin Doll
TTITLE16=Django Rheinhardt-Georgia On My Mind
TTITLE17=Art Tatum-The Man I Love
TTITLE18=Dave Brubeck-A Fine Romance
TTITLE19=Dexter Gordon-It's The Talk of The Town
EXTD=YEAR: 2012
EXTT0=
EXTT1=
EXTT2=
EXTT3=
EXTT4=
EXTT5=
EXTT6=
EXTT7=
EXTT8=
EXTT9=
EXTT10=
EXTT11=
EXTT12=
EXTT13=
EXTT14=
EXTT15=
EXTT16=
EXTT17=
EXTT18=
EXTT19=
PLAYORDER=
